<svg width="700" height="810" viewBox="0 0 700 810" fill="none" xmlns="http://www.w3.org/2000/svg">
<path d="M582 120L462 289L370 419L256 289L206 230L409.5 0H582V120Z" fill="#75E8E7"/>
<path d="M118 0H315L118 230L315 460H118V0Z" fill="#64379F"/>
<path d="M582 239L425 460H582V239Z" fill="#64379F"/>
<path d="M0 552.909H31.8182V584.727H0V552.909ZM0 584.727H31.8182V616.545H0V584.727ZM0 616.545H31.8182V648.364H0V616.545ZM0 648.364H31.8182V680.182H0V648.364ZM0 680.182H31.8182V712H0V680.182ZM63.6364 552.909H95.4545V584.727H63.6364V552.909ZM63.6364 584.727H95.4545V616.545H63.6364V584.727ZM31.8182 616.545H63.6364V648.364H31.8182V616.545ZM63.6364 648.364H95.4545V680.182H63.6364V648.364ZM63.6364 680.182H95.4545V712H63.6364V680.182ZM127.148 552.909H158.967V584.727H127.148V552.909ZM127.148 584.727H158.967V616.545H127.148V584.727ZM127.148 616.545H158.967V648.364H127.148V616.545ZM127.148 648.364H158.967V680.182H127.148V648.364ZM127.148 680.182H158.967V712H127.148V680.182ZM190.723 680.182H222.541V712H190.723V680.182ZM190.723 648.364H222.541V680.182H190.723V648.364ZM190.723 616.545H222.541V648.364H190.723V616.545ZM190.723 584.727H222.541V616.545H190.723V584.727ZM222.541 552.909H254.359V584.727H222.541V552.909ZM254.359 584.727H286.177V616.545H254.359V584.727ZM254.359 616.545H286.177V648.364H254.359V616.545ZM254.359 648.364H286.177V680.182H254.359V648.364ZM254.359 680.182H286.177V712H254.359V680.182ZM222.541 616.545H254.359V648.364H222.541V616.545ZM317.871 680.182H349.689V712H317.871V680.182ZM317.871 648.364H349.689V680.182H317.871V648.364ZM317.871 616.545H349.689V648.364H317.871V616.545ZM317.871 584.727H349.689V616.545H317.871V584.727ZM349.689 552.909H381.507V584.727H349.689V552.909ZM381.507 584.727H413.326V616.545H381.507V584.727ZM381.507 616.545H413.326V648.364H381.507V616.545ZM381.507 648.364H413.326V680.182H381.507V648.364ZM381.507 680.182H413.326V712H381.507V680.182ZM317.871 552.909H349.689V584.727H317.871V552.909Z" fill="#64379F"/>
<path d="M445.02 616.545H476.838V648.364H445.02V616.545ZM476.838 616.545H508.656V648.364H476.838V616.545ZM508.656 616.545H540.474V648.364H508.656V616.545ZM572.168 552.909H603.986V584.727H572.168V552.909ZM572.168 584.727H603.986V616.545H572.168V584.727ZM572.168 616.545H603.986V648.364H572.168V616.545ZM572.168 648.364H603.986V680.182H572.168V648.364ZM603.986 680.182H635.804V712H603.986V680.182ZM635.804 648.364H667.623V680.182H635.804V648.364ZM635.804 616.545H667.623V648.364H635.804V616.545ZM635.804 584.727H667.623V616.545H635.804V584.727ZM635.804 552.909H667.623V584.727H635.804V552.909Z" fill="#75E8E7"/>
</svg>
