<svg width="800" height="626" viewBox="0 0 800 626" fill="none" xmlns="http://www.w3.org/2000/svg">
<path d="M632 120L512 289L420 419L306 289L256 230L459.5 0H632V120Z" fill="#FF6150"/>
<path d="M168 0H365L168 230L365 460H168V0Z" fill="#072448"/>
<path d="M632 239L475 460H632V239Z" fill="#072448"/>
<path d="M0 626V508.355H30.2797V556.37H75.3208L119.794 508.355H157.455L101.816 567.095L157.455 626H119.794L75.1316 577.82H30.2797V626H0Z" fill="#072448"/>
<path d="M172.615 626V508.025H202.895V626H172.615Z" fill="#072448"/>
<path d="M217.998 626L278.936 508.025H325.68L386.618 626H353.689L340.82 601.085H263.796L250.927 626H217.998ZM274.772 579.635H329.844L303.538 528.65H301.078L274.772 579.635Z" fill="#072448"/>
<path d="M401.783 626V508.025H432.441L528.201 592.835V508.025H558.481V626H527.822L432.063 541.025V626H401.783Z" fill="#072448"/>
<path d="M579.255 587.39V568.415H637.165V587.39H579.255Z" fill="#FF6150"/>
<path d="M692.318 626L631.38 508.025H664.309L714.46 605.375H716.92L767.071 508.025H800L739.062 626H692.318Z" fill="#FF6150"/>
</svg>
