<svg width="800" height="626" viewBox="0 0 800 626" fill="none" xmlns="http://www.w3.org/2000/svg">
<path d="M632 120L512 289L420 419L306 289L256 230L459.5 0H632V120Z" fill="#F6B21A"/>
<path d="M168 0H365L168 230L365 460H168V0Z" fill="#2A3172"/>
<path d="M632 239L475 460H632V239Z" fill="#2A3172"/>
<path d="M0 625.975V508.33H30.2797V556.345H75.3208L119.794 508.33H157.455L101.816 567.07L157.455 625.975H119.794L75.1316 577.795H30.2797V625.975H0Z" fill="#2A3172"/>
<path d="M172.615 625.975V508H202.895V625.975H172.615Z" fill="#2A3172"/>
<path d="M217.998 625.975L278.936 508H325.68L386.618 625.975H353.689L340.82 601.06H263.796L250.927 625.975H217.998ZM274.772 579.61H329.844L303.538 528.625H301.078L274.772 579.61Z" fill="#2A3172"/>
<path d="M401.783 625.975V508H432.441L528.201 592.81V508H558.481V625.975H527.822L432.063 541V625.975H401.783Z" fill="#2A3172"/>
<path d="M579.255 587.365V568.39H637.165V587.365H579.255Z" fill="#F6B21A"/>
<path d="M692.318 625.975L631.38 508H664.309L714.46 605.35H716.92L767.071 508H800L739.062 625.975H692.318Z" fill="#F6B21A"/>
</svg>
